<svg width="51" height="50" viewBox="0 0 51 50" fill="none" xmlns="http://www.w3.org/2000/svg">
<path d="M25.0039 12.5049C22.5316 12.5049 20.1149 13.238 18.0593 14.6115C16.0037 15.985 14.4015 17.9373 13.4554 20.2213C12.5093 22.5054 12.2618 25.0188 12.7441 27.4435C13.2264 29.8683 14.4169 32.0956 16.1651 33.8437C17.9132 35.5919 20.1405 36.7824 22.5653 37.2647C24.99 37.747 27.5034 37.4995 29.7875 36.5534C32.0715 35.6073 34.0238 34.0051 35.3973 31.9495C36.7708 29.8939 37.5039 27.4772 37.5039 25.0049C37.5 21.6909 36.1818 18.5137 33.8384 16.1704C31.4951 13.827 28.3179 12.5088 25.0039 12.5049ZM25.0039 32.5049C23.5206 32.5049 22.0705 32.065 20.8371 31.2409C19.6038 30.4168 18.6425 29.2455 18.0748 27.875C17.5072 26.5046 17.3586 24.9966 17.648 23.5417C17.9374 22.0868 18.6517 20.7505 19.7006 19.7016C20.7495 18.6527 22.0859 17.9384 23.5407 17.649C24.9956 17.3596 26.5036 17.5081 27.874 18.0758C29.2445 18.6434 30.4158 19.6047 31.2399 20.8381C32.064 22.0715 32.5039 23.5215 32.5039 25.0049C32.5017 26.9933 31.7109 28.8997 30.3048 30.3058C28.8988 31.7118 26.9924 32.5027 25.0039 32.5049Z" fill="#EEEEEE"/>
<path d="M22.5039 2.5V8.125C22.5039 8.78804 22.7673 9.42393 23.2361 9.89277C23.705 10.3616 24.3409 10.625 25.0039 10.625C25.6669 10.625 26.3028 10.3616 26.7717 9.89277C27.2405 9.42393 27.5039 8.78804 27.5039 8.125V2.5C27.5039 1.83696 27.2405 1.20107 26.7717 0.732231C26.3028 0.26339 25.6669 0 25.0039 0C24.3409 0 23.705 0.26339 23.2361 0.732231C22.7673 1.20107 22.5039 1.83696 22.5039 2.5Z" fill="#EEEEEE"/>
<path d="M39.1469 7.32179L35.1686 11.3001C34.9364 11.5322 34.7521 11.8077 34.6264 12.1111C34.5007 12.4144 34.436 12.7395 34.4359 13.0678C34.4359 13.3961 34.5005 13.7213 34.6261 14.0246C34.7517 14.328 34.9359 14.6036 35.1681 14.8358C35.4002 15.068 35.6759 15.2521 35.9792 15.3777C36.2826 15.5034 36.6077 15.568 36.936 15.5679C37.2644 15.5679 37.5895 15.5032 37.8928 15.3774C38.1961 15.2517 38.4717 15.0675 38.7038 14.8352L42.6821 10.8569C43.1488 10.3877 43.4104 9.75258 43.4095 9.09076C43.4086 8.42895 43.1453 7.7945 42.6773 7.32653C42.2094 6.85856 41.5749 6.59526 40.9131 6.59437C40.2513 6.59349 39.6161 6.85507 39.1469 7.32179Z" fill="#EEEEEE"/>
<path d="M47.5039 22.5H41.8789C41.2159 22.5 40.58 22.7634 40.1111 23.2322C39.6423 23.7011 39.3789 24.337 39.3789 25C39.3789 25.663 39.6423 26.2989 40.1111 26.7678C40.58 27.2366 41.2159 27.5 41.8789 27.5H47.5039C48.1669 27.5 48.8028 27.2366 49.2717 26.7678C49.7405 26.2989 50.0039 25.663 50.0039 25C50.0039 24.337 49.7405 23.7011 49.2717 23.2322C48.8028 22.7634 48.1669 22.5 47.5039 22.5Z" fill="#EEEEEE"/>
<path d="M38.7039 35.1648C38.2348 34.6975 37.5994 34.4354 36.9373 34.436C36.2751 34.4366 35.6403 34.7 35.1721 35.1682C34.7039 35.6364 34.4406 36.2712 34.4399 36.9334C34.4393 37.5955 34.7014 38.2309 35.1687 38.7L39.147 42.677C39.6162 43.1437 40.2514 43.4053 40.9132 43.4044C41.575 43.4035 42.2095 43.1403 42.6774 42.6723C43.1454 42.2043 43.4087 41.5699 43.4096 40.908C43.4105 40.2462 43.1489 39.6111 42.6822 39.1419L38.7039 35.1648Z" fill="#EEEEEE"/>
<path d="M25.0039 39.375C24.3409 39.375 23.705 39.6384 23.2362 40.1073C22.7673 40.5761 22.5039 41.212 22.5039 41.875V47.5C22.5039 48.163 22.7673 48.7989 23.2361 49.2678C23.705 49.7366 24.3409 50 25.0039 50C25.6669 50 26.3028 49.7366 26.7717 49.2678C27.2405 48.7989 27.5039 48.163 27.5039 47.5V41.875C27.5039 41.212 27.2405 40.5761 26.7716 40.1073C26.3028 39.6384 25.6669 39.375 25.0039 39.375Z" fill="#EEEEEE"/>
<path d="M11.304 35.1648L7.32695 39.1418C7.09471 39.3739 6.91047 39.6495 6.78475 39.9528C6.65903 40.2561 6.59429 40.5812 6.59424 40.9096C6.59419 41.2379 6.65882 41.5631 6.78444 41.8664C6.91007 42.1698 7.09423 42.4454 7.32639 42.6776C7.55856 42.9097 7.8342 43.0939 8.13755 43.2195C8.4409 43.3451 8.76603 43.4098 9.09437 43.4097C9.4227 43.4097 9.74781 43.3449 10.0511 43.2192C10.3544 43.0935 10.63 42.9093 10.8621 42.677L14.8392 38.7C15.3059 38.2307 15.5675 37.5956 15.5666 36.9338C15.5657 36.272 15.3024 35.6375 14.8344 35.1695C14.3665 34.7016 13.732 34.4383 13.0702 34.4374C12.4084 34.4365 11.7732 34.6981 11.304 35.1648Z" fill="#EEEEEE"/>
<path d="M10.6289 25C10.6289 24.337 10.3655 23.7011 9.89664 23.2323C9.4278 22.7634 8.79194 22.5 8.12891 22.5H2.50391C1.84086 22.5 1.20498 22.7634 0.736139 23.2322C0.267298 23.7011 0.00390625 24.337 0.00390625 25C0.00390625 25.663 0.267298 26.2989 0.736139 26.7678C1.20498 27.2366 1.84086 27.5 2.50391 27.5H8.12891C8.79194 27.5 9.4278 27.2366 9.89664 26.7677C10.3655 26.2989 10.6289 25.663 10.6289 25Z" fill="#EEEEEE"/>
<path d="M7.32691 7.32179C7.09471 7.55386 6.91051 7.82942 6.78484 8.13271C6.65917 8.436 6.59448 8.76107 6.59448 9.08937C6.59448 9.41766 6.65917 9.74274 6.78484 10.046C6.91051 10.3493 7.09471 10.6249 7.32691 10.8569L11.304 14.8352C11.5359 15.0684 11.8115 15.2535 12.115 15.3799C12.4186 15.5064 12.7441 15.5717 13.0729 15.5721C13.4018 15.5726 13.7274 15.5081 14.0313 15.3825C14.3352 15.2568 14.6113 15.0725 14.8438 14.84C15.0764 14.6074 15.2607 14.3313 15.3864 14.0274C15.512 13.7236 15.5764 13.3979 15.576 13.069C15.5756 12.7402 15.5102 12.4147 15.3838 12.1111C15.2573 11.8076 15.0722 11.532 14.8391 11.3001L10.8621 7.32179C10.63 7.08959 10.3544 6.90539 10.0511 6.77972C9.74786 6.65405 9.42278 6.58936 9.09449 6.58936C8.76619 6.58936 8.44112 6.65405 8.13783 6.77972C7.83454 6.90539 7.55899 7.08959 7.32691 7.32179Z" fill="#EEEEEE"/>
</svg>
