<svg width="39" height="54" viewBox="0 0 39 54" fill="none" xmlns="http://www.w3.org/2000/svg">
<path d="M19.3086 2C9.75279 2 2 9.37897 2 18.4672C2 28.9244 13.539 45.4962 17.776 51.22C17.9519 51.4616 18.1824 51.6582 18.4487 51.7938C18.7151 51.9293 19.0097 52 19.3086 52C19.6074 52 19.902 51.9293 20.1684 51.7938C20.4347 51.6582 20.6652 51.4616 20.8411 51.22C25.0781 45.4986 36.6171 28.9328 36.6171 18.4672C36.6171 9.37897 28.8643 2 19.3086 2Z" stroke="#EEEEEE" stroke-width="3" stroke-linecap="round" stroke-linejoin="round"/>
<path d="M19.3086 25.0781C22.495 25.0781 25.0781 22.495 25.0781 19.3085C25.0781 16.1221 22.495 13.539 19.3086 13.539C16.1222 13.539 13.5391 16.1221 13.5391 19.3085C13.5391 22.495 16.1222 25.0781 19.3086 25.0781Z" stroke="#EEEEEE" stroke-width="3" stroke-linecap="round" stroke-linejoin="round"/>
</svg>
