<svg width="50" height="50" viewBox="0 0 50 50" fill="none" xmlns="http://www.w3.org/2000/svg">
<path d="M25.6196 0.0108407L25.5749 0.00755794C25.5548 0.00699721 25.5355 0.00357554 25.5154 0.00308347C25.1633 -0.0157735 24.8119 0.0520756 24.4921 0.200681C24.1723 0.349286 23.8939 0.574102 23.6813 0.855403C23.6643 0.876356 23.6479 0.897381 23.6316 0.919032C23.5649 1.01031 23.5047 1.10627 23.4517 1.20617C23.438 1.23145 23.4194 1.25219 23.4066 1.27818C23.4009 1.28977 23.3988 1.30215 23.3933 1.31381C23.3468 1.41526 23.3077 1.51993 23.2762 1.62699C23.2659 1.66094 23.2505 1.6939 23.2419 1.72806L23.2368 1.74307C23.2047 1.87468 23.1843 2.00886 23.1759 2.14406C23.1736 2.18164 23.1784 2.21858 23.1779 2.25609C23.175 2.35819 23.179 2.46037 23.1898 2.56194C23.196 2.61327 23.2088 2.66272 23.2183 2.71336C23.2333 2.79846 23.2531 2.88265 23.2777 2.9655C23.2944 3.01943 23.3153 3.07103 23.3359 3.12356C23.3652 3.19939 23.3986 3.2736 23.4359 3.34587C23.4629 3.39777 23.4916 3.44798 23.5226 3.49785C23.5656 3.56624 23.6123 3.63229 23.6624 3.69572C23.6983 3.74181 23.7333 3.78764 23.773 3.83102C23.8336 3.89562 23.8979 3.95665 23.9655 4.01381C24.0044 4.04754 24.04 4.08361 24.0816 4.11501C24.1959 4.20252 24.3183 4.27904 24.447 4.34355C27.1128 5.63489 29.3608 7.65122 30.9333 10.1614C32.5058 12.6716 33.3392 15.5741 33.338 18.5362C33.2935 21.8841 32.204 25.1344 30.2219 27.8328C28.2398 30.5313 25.464 32.5429 22.2827 33.5867C19.1013 34.6304 15.6733 34.6541 12.4779 33.6543C9.28243 32.6546 6.47921 30.6814 4.46003 28.0106C4.3641 27.8858 4.25549 27.7714 4.13595 27.669C4.09933 27.6367 4.0601 27.6087 4.02133 27.5786C3.93766 27.5142 3.84963 27.4556 3.75787 27.4034C3.70494 27.3729 3.65331 27.3424 3.59793 27.3161C3.49552 27.2691 3.38979 27.2297 3.2816 27.1983C3.10845 27.15 2.93099 27.1189 2.75177 27.1054C2.70763 27.1028 2.66642 27.0897 2.62165 27.0897C2.56891 27.0897 2.5196 27.1017 2.46778 27.1052C2.44437 27.1069 2.42132 27.1098 2.39797 27.1123C2.06188 27.1404 1.73638 27.2436 1.4455 27.4142C1.15462 27.5849 0.90578 27.8188 0.717336 28.0985C0.528891 28.3782 0.405657 28.6966 0.356724 29.0303C0.30779 29.364 0.334405 29.7044 0.43461 30.0264C1.3794 34.63 3.60269 38.8741 6.84944 42.2718C10.0962 45.6695 14.2349 48.0832 18.7908 49.2361C23.3468 50.389 28.1354 50.2343 32.6075 48.7898C37.0795 47.3454 41.0539 44.6696 44.0746 41.0695C47.0954 37.4694 49.0402 33.0907 49.6859 28.4357C50.3317 23.7808 49.6523 19.038 47.7256 14.7516C45.7989 10.4651 42.703 6.80856 38.7931 4.2013C34.8831 1.59404 30.3174 0.141683 25.6196 0.0108407ZM24.8907 45.0137C21.7569 45.0109 18.665 44.2931 15.8504 42.915C13.0358 41.537 10.5727 39.535 8.64856 37.0614C8.69955 37.0848 8.75384 37.1005 8.80508 37.1235C9.38801 37.3858 9.98219 37.6216 10.5876 37.8309C10.6843 37.8641 10.7814 37.8946 10.8787 37.9264C11.4979 38.1292 12.1259 38.3067 12.7636 38.4509C12.8468 38.4697 12.9305 38.4847 13.0139 38.5024C13.6727 38.6429 14.3382 38.7569 15.0114 38.8328C15.0655 38.8389 15.1198 38.8414 15.1739 38.8471C18.0309 39.1539 20.9205 38.8582 23.6561 37.9788C26.3916 37.0995 28.9124 35.6562 31.0555 33.7422C33.1986 31.8281 34.9164 29.4858 36.098 26.8666C37.2796 24.2474 37.8988 21.4094 37.9154 18.5361C37.9154 18.0223 37.8939 17.5123 37.8563 17.0062C37.8439 16.8386 37.8201 16.6739 37.8036 16.5073C37.7703 16.1704 37.7361 15.834 37.6865 15.5012C37.6572 15.3051 37.6177 15.1123 37.583 14.9177C37.5294 14.6187 37.475 14.3204 37.4084 14.0255C37.3625 13.8216 37.3085 13.6207 37.2564 13.419C37.1839 13.1386 37.1091 12.8595 37.025 12.5835C36.9627 12.3793 36.8952 12.1777 36.8267 11.976C36.7356 11.7077 36.6401 11.4417 36.5379 11.1781C36.4608 10.979 36.3807 10.7815 36.2976 10.5854C36.187 10.3247 36.07 10.0674 35.9487 9.81201C35.8582 9.62147 35.7674 9.43163 35.671 9.24416C35.5395 8.98852 35.3998 8.73785 35.2576 8.48816C35.1563 8.31019 35.057 8.13152 34.9503 7.9567C34.7934 7.69953 34.626 7.4492 34.4576 7.19914C34.3748 7.07622 34.3008 6.94769 34.2153 6.82659C38.297 8.87198 41.5637 12.2421 43.481 16.3856C45.3983 20.529 45.8526 25.2005 44.7696 29.6358C43.6866 34.071 41.1304 38.0074 37.5193 40.8009C33.9081 43.5944 29.4558 45.0797 24.8907 45.0137Z" fill="#EEEEEE"/>
<path d="M12.5264 12.7943L12.9745 11.1135L14.6564 10.6643C15.1434 10.534 15.5738 10.2465 15.8807 9.84654C16.1877 9.44656 16.354 8.95645 16.3539 8.45227C16.3537 7.9481 16.1872 7.45807 15.88 7.05825C15.5729 6.65844 15.1423 6.3712 14.6552 6.24113L12.9745 5.793L12.5263 4.11224C12.3963 3.62505 12.109 3.19444 11.7091 2.88729C11.3092 2.58013 10.819 2.41362 10.3148 2.41362C9.81051 2.41362 9.32036 2.58013 8.92045 2.88729C8.52053 3.19444 8.23324 3.62505 8.10318 4.11224L7.65505 5.793L5.97317 6.24113C5.48606 6.3712 5.05552 6.65844 4.74838 7.05825C4.44123 7.45807 4.27467 7.9481 4.27454 8.45227C4.27441 8.95645 4.44071 9.44656 4.74765 9.84654C5.05459 10.2465 5.48498 10.534 5.97202 10.6643L7.65501 11.1135L8.10314 12.7943C8.23321 13.2815 8.5205 13.7121 8.92041 14.0193C9.32032 14.3264 9.81047 14.4929 10.3147 14.4929C10.819 14.4929 11.3091 14.3264 11.709 14.0193C12.1089 13.7121 12.3963 13.2815 12.5264 12.7943Z" fill="#EEEEEE"/>
<path d="M12.8392 24.715L14.5211 25.1631L14.9692 26.8439C15.0993 27.331 15.3866 27.7617 15.7865 28.0688C16.1864 28.376 16.6766 28.5425 17.1808 28.5425C17.6851 28.5425 18.1752 28.376 18.5751 28.0688C18.9751 27.7617 19.2624 27.331 19.3924 26.8439L19.8405 25.1631L21.5213 24.715C22.0085 24.5849 22.4391 24.2976 22.7463 23.8977C23.0534 23.4978 23.2199 23.0076 23.2199 22.5034C23.2199 21.9991 23.0534 21.509 22.7463 21.1091C22.4391 20.7092 22.0085 20.4219 21.5213 20.2918L19.8405 19.8437L19.3924 18.1618C19.2624 17.6746 18.9751 17.244 18.5751 16.9368C18.1752 16.6297 17.6851 16.4632 17.1808 16.4632C16.6766 16.4632 16.1864 16.6297 15.7865 16.9368C15.3866 17.244 15.0993 17.6746 14.9692 18.1618L14.5211 19.8437L12.8392 20.2918C12.352 20.4219 11.9214 20.7092 11.6143 21.1091C11.3071 21.509 11.1406 21.9991 11.1406 22.5034C11.1406 23.0076 11.3071 23.4978 11.6143 23.8977C11.9214 24.2976 12.352 24.5849 12.8392 24.715Z" fill="#EEEEEE"/>
</svg>
