<svg width="16" height="30" viewBox="0 0 16 30" fill="none" xmlns="http://www.w3.org/2000/svg">
<rect x="0.25" y="0.25" width="15.5" height="29.5" rx="7.75" stroke="#1A1A1A" stroke-width="0.5"/>
<path d="M8.5 12C8.5 11.7239 8.27614 11.5 8 11.5C7.72386 11.5 7.5 11.7239 7.5 12L8.5 12ZM7.64645 22.3536C7.84171 22.5488 8.15829 22.5488 8.35355 22.3536L11.5355 19.1716C11.7308 18.9763 11.7308 18.6597 11.5355 18.4645C11.3403 18.2692 11.0237 18.2692 10.8284 18.4645L8 21.2929L5.17157 18.4645C4.97631 18.2692 4.65973 18.2692 4.46447 18.4645C4.2692 18.6597 4.2692 18.9763 4.46447 19.1716L7.64645 22.3536ZM7.5 12L7.5 22L8.5 22L8.5 12L7.5 12Z" fill="#1A1A1A"/>
</svg>
