<svg width="31" height="54" viewBox="0 0 31 54" fill="none" xmlns="http://www.w3.org/2000/svg">
<path d="M23.6431 1.57773H6.97644C4.21502 1.57773 1.97644 3.8163 1.97644 6.57773V46.5777C1.97644 49.3391 4.21502 51.5777 6.97644 51.5777H23.6431C26.4045 51.5777 28.6431 49.3391 28.6431 46.5777V6.57773C28.6431 3.8163 26.4045 1.57773 23.6431 1.57773Z" stroke="#EEEEEE" stroke-width="3" stroke-linecap="round" stroke-linejoin="round"/>
<path d="M6.97644 1.57773H9.47644C9.69745 1.57773 9.90942 1.66553 10.0657 1.82181C10.222 1.97809 10.3098 2.19005 10.3098 2.41106C10.3098 2.85309 10.4854 3.27701 10.7979 3.58957C11.1105 3.90213 11.5344 4.07773 11.9764 4.07773H18.6431C19.0851 4.07773 19.5091 3.90213 19.8216 3.58957C20.1342 3.27701 20.3098 2.85309 20.3098 2.41106C20.3098 2.19005 20.3976 1.97809 20.5539 1.82181C20.7101 1.66553 20.9221 1.57773 21.1431 1.57773H23.6431" stroke="#EEEEEE" stroke-width="3" stroke-linecap="round" stroke-linejoin="round"/>
</svg>
